<?xml version="1.0" standalone="no"?>
<!DOCTYPE svg PUBLIC "-//W3C//DTD SVG 20010904//EN"
 "http://www.w3.org/TR/2001/REC-SVG-20010904/DTD/svg10.dtd">
<svg version="1.0" xmlns="http://www.w3.org/2000/svg"
 width="1200.000000pt" height="630.000000pt" viewBox="0 0 1200.000000 630.000000"
 preserveAspectRatio="xMidYMid meet">

<g transform="translate(0.000000,630.000000) scale(0.100000,-0.100000)"
fill="#000000" stroke="none">
<path d="M5924 6190 c-18 -6 -53 -25 -80 -42 -53 -36 -181 -211 -495 -678
-159 -236 -189 -283 -381 -582 -119 -186 -335 -547 -448 -748 -105 -186 -345
-654 -383 -745 -14 -33 -44 -103 -67 -155 -85 -193 -165 -431 -212 -625 -27
-114 -31 -153 -35 -313 -6 -206 8 -331 57 -537 188 -781 811 -1406 1595 -1599
189 -47 305 -60 525 -60 220 0 336 13 525 60 784 193 1407 818 1595 1599 49
206 63 331 57 537 -4 160 -8 199 -35 313 -47 194 -127 432 -212 625 -23 52
-53 122 -67 155 -79 191 -385 760 -608 1130 -335 557 -1002 1552 -1079 1609
-75 57 -177 79 -252 56z m-1246 -3151 c133 -66 193 -200 158 -350 -53 -231
-41 -533 31 -732 62 -174 140 -295 281 -433 124 -124 152 -174 152 -279 0
-148 -92 -261 -238 -295 -112 -26 -191 4 -319 121 -325 297 -509 691 -543
1162 -16 214 17 535 67 655 26 63 79 118 145 151 51 26 73 31 133 31 60 0 82
-5 133 -31z m1282 -1979 c97 -50 147 -108 175 -205 47 -160 -37 -327 -194
-386 -77 -29 -185 -23 -256 13 -175 91 -229 309 -117 473 31 45 119 109 172
124 58 17 169 7 220 -19z"/>
</g>
</svg>
