<?xml version="1.0" standalone="no"?>
<!DOCTYPE svg PUBLIC "-//W3C//DTD SVG 20010904//EN"
 "http://www.w3.org/TR/2001/REC-SVG-20010904/DTD/svg10.dtd">
<svg version="1.0" xmlns="http://www.w3.org/2000/svg"
 width="840.000000pt" height="825.000000pt" viewBox="0 0 840.000000 825.000000"
 preserveAspectRatio="xMidYMid meet">

<g transform="translate(0.000000,825.000000) scale(0.100000,-0.100000)"
fill="#000000" stroke="none">
<path d="M4024 7833 c-21 -14 -25 -119 -34 -898 -11 -833 -13 -870 -69 -1081
-66 -249 -178 -492 -332 -723 -55 -83 -104 -153 -110 -156 -12 -8 -12 355 1
540 33 492 31 980 -5 1120 -23 88 -78 197 -124 248 -62 67 -137 100 -245 105
-110 6 -196 -9 -348 -58 -769 -251 -1706 -1263 -2126 -2295 -208 -512 -355
-1200 -414 -1940 -17 -210 -17 -837 0 -1025 34 -379 102 -715 189 -934 94
-237 204 -346 348 -346 103 0 97 -3 524 290 219 150 473 276 951 472 268 109
548 243 650 309 101 66 249 221 288 301 38 78 72 203 72 266 0 24 -9 158 -21
296 -16 192 -20 299 -16 456 5 232 11 272 112 740 36 167 76 363 90 435 21
114 45 352 45 453 0 29 24 57 220 255 262 267 324 340 437 515 47 72 89 132
93 132 3 0 45 -60 93 -132 112 -173 174 -247 435 -517 l217 -224 11 -161 c17
-237 23 -269 144 -826 78 -360 91 -451 97 -665 3 -141 -1 -257 -16 -449 -26
-318 -26 -334 -1 -430 29 -115 74 -198 154 -284 143 -152 316 -254 722 -422
399 -165 487 -204 664 -291 224 -110 293 -151 525 -314 282 -197 283 -198 376
-203 70 -4 85 -2 133 22 180 88 315 423 395 976 35 242 46 423 45 790 0 547
-47 1010 -154 1525 -120 575 -283 1024 -526 1447 -519 903 -1325 1644 -1969
1809 -127 32 -329 34 -396 3 -128 -59 -196 -175 -236 -401 -23 -132 -23 -632
0 -964 18 -256 23 -634 8 -625 -5 4 -55 75 -112 159 -170 253 -291 526 -355
806 -32 140 -43 333 -44 796 -2 571 -15 1074 -29 1088 -14 14 -339 23 -357 10z"/>
</g>
</svg>
