<?xml version="1.0" standalone="no"?>
<!DOCTYPE svg PUBLIC "-//W3C//DTD SVG 20010904//EN"
 "http://www.w3.org/TR/2001/REC-SVG-20010904/DTD/svg10.dtd">
<svg version="1.0" xmlns="http://www.w3.org/2000/svg"
 width="225.000000pt" height="225.000000pt" viewBox="0 0 225.000000 225.000000"
 preserveAspectRatio="xMidYMid meet">

<g transform="translate(0.000000,225.000000) scale(0.100000,-0.100000)"
fill="#000000" stroke="none">
<path d="M952 1810 c-41 -11 -101 -33 -135 -50 -67 -33 -157 -95 -157 -108 0
-4 17 -25 38 -45 l38 -37 68 44 c96 63 171 87 291 93 173 9 305 -39 430 -159
224 -212 245 -551 50 -792 -42 -51 -132 -126 -152 -126 -4 0 -17 16 -27 35
-22 40 -12 49 -99 -87 l-56 -86 127 -31 c70 -17 133 -31 140 -31 8 0 6 13 -9
42 l-22 42 24 16 c146 96 260 252 306 421 21 78 24 260 4 339 -7 30 -33 98
-58 150 -39 82 -58 107 -137 185 -103 102 -187 151 -321 185 -102 26 -243 26
-343 0z"/>
<path d="M1080 1391 c0 -176 -2 -211 -16 -221 -45 -38 -37 -98 16 -120 24 -10
35 -9 61 4 25 12 64 16 171 16 l138 0 0 40 0 40 -143 0 c-127 0 -146 2 -160
18 -15 16 -17 47 -17 225 l0 207 -25 0 -25 0 0 -209z"/>
<path d="M512 1471 c-29 -53 -72 -161 -72 -182 0 -7 110 -43 114 -37 1 2 8 23
15 48 7 25 28 72 46 106 l33 60 -47 32 c-25 18 -49 32 -51 32 -3 0 -20 -27
-38 -59z"/>
<path d="M420 1123 c1 -48 20 -167 29 -176 14 -14 114 41 107 59 -3 8 -8 43
-12 79 l-7 65 -58 0 c-58 0 -59 -1 -59 -27z"/>
<path d="M533 872 c-24 -15 -43 -32 -43 -38 0 -12 66 -123 85 -143 12 -12 20
-9 59 22 l44 37 -44 67 c-24 37 -44 71 -44 75 0 13 -13 9 -57 -20z"/>
<path d="M740 613 l-33 -46 24 -20 c13 -10 50 -32 82 -48 l57 -30 20 47 c26
60 25 67 -7 81 -16 6 -46 23 -69 37 l-41 25 -33 -46z"/>
<path d="M1015 495 c-3 -31 -5 -59 -2 -61 2 -2 41 -7 86 -11 92 -7 92 -7 65
70 -14 40 -20 47 -42 47 -15 0 -43 3 -63 6 l-36 6 -8 -57z"/>
</g>
</svg>
