<?xml version="1.0" standalone="no"?>
<!DOCTYPE svg PUBLIC "-//W3C//DTD SVG 20010904//EN"
 "http://www.w3.org/TR/2001/REC-SVG-20010904/DTD/svg10.dtd">
<svg version="1.0" xmlns="http://www.w3.org/2000/svg"
 width="216.000000pt" height="233.000000pt" viewBox="0 0 216.000000 233.000000"
 preserveAspectRatio="xMidYMid meet">

<g transform="translate(0.000000,233.000000) scale(0.100000,-0.100000)"
fill="#000000" stroke="none">
<path d="M1069 1834 c-83 -97 -136 -185 -144 -239 -4 -23 -2 -82 4 -131 6 -49
8 -99 4 -112 l-6 -23 -30 28 c-24 23 -29 24 -22 8 35 -93 21 -120 -24 -44 -38
65 -111 153 -140 169 -15 7 -13 0 7 -42 40 -83 40 -152 1 -293 -58 -213 -41
-341 62 -446 30 -31 74 -62 116 -82 58 -27 82 -32 165 -35 119 -5 186 13 267
73 105 78 160 218 146 375 -6 80 -14 115 -48 224 l-21 70 -12 -74 c-12 -70
-36 -119 -62 -128 -8 -2 -12 8 -12 30 0 51 -33 160 -64 209 -14 24 -47 72 -71
106 -24 35 -49 80 -54 100 -14 49 -14 193 0 267 6 32 9 60 7 62 -2 2 -33 -30
-69 -72z m34 -626 l-5 -83 46 -69 c25 -39 48 -86 52 -105 10 -62 14 -69 27
-46 6 11 14 36 17 55 l7 35 16 -54 c20 -66 22 -170 3 -214 -26 -63 -111 -117
-186 -117 -71 0 -154 49 -186 111 -19 37 -18 117 2 186 16 54 15 109 -1 148
-8 18 -7 19 10 5 10 -8 31 -33 47 -54 23 -32 28 -35 28 -18 0 15 5 20 14 16
13 -5 14 6 9 64 -5 61 -3 76 16 107 17 30 82 114 87 115 1 0 0 -37 -3 -82z"/>
</g>
</svg>
