<?xml version="1.0" standalone="no"?>
<!DOCTYPE svg PUBLIC "-//W3C//DTD SVG 20010904//EN"
 "http://www.w3.org/TR/2001/REC-SVG-20010904/DTD/svg10.dtd">
<svg version="1.0" xmlns="http://www.w3.org/2000/svg"
 width="216.000000pt" height="233.000000pt" viewBox="0 0 216.000000 233.000000"
 preserveAspectRatio="xMidYMid meet">

<g transform="translate(0.000000,233.000000) scale(0.100000,-0.100000)"
fill="#000000" stroke="none">
<path d="M936 1754 c-24 -24 -20 -67 9 -92 21 -19 25 -30 25 -81 l0 -58 -52
-39 c-61 -46 -102 -102 -117 -161 -6 -23 -11 -137 -11 -255 0 -233 6 -260 61
-301 64 -46 394 -46 458 0 55 41 61 68 61 301 0 118 -5 232 -11 255 -15 59
-56 115 -117 161 l-52 39 0 57 c0 47 4 60 25 80 29 27 33 71 9 94 -23 23 -265
23 -288 0z m225 -500 c34 -17 77 -68 85 -100 4 -14 3 -51 0 -82 -4 -31 -8 -71
-9 -88 -3 -41 -23 -64 -58 -64 -19 0 -30 -6 -34 -20 -5 -17 -15 -20 -65 -20
-50 0 -60 3 -65 20 -4 14 -15 20 -34 20 -35 0 -55 23 -58 64 -1 17 -5 61 -9
97 -7 78 7 113 61 155 57 43 123 50 186 18z"/>
<path d="M972 1048 c-30 -30 -2 -86 36 -74 60 19 66 86 8 86 -17 0 -37 -5 -44
-12z"/>
<path d="M1104 1038 c-5 -17 0 -28 21 -45 31 -28 52 -27 71 2 12 18 11 24 -2
43 -21 31 -80 31 -90 0z"/>
<path d="M1067 973 c-16 -15 -6 -43 14 -43 15 0 19 4 15 16 -3 9 -6 20 -6 25
0 11 -14 12 -23 2z"/>
</g>
</svg>
